<svg xmlns="http://www.w3.org/2000/svg" width="30" height="31" viewBox="0 0 30 31" fill="none">
  <g clip-path="url(#clip0_126_532)">
    <path d="M5 13.905C3.9625 13.905 3.125 14.7425 3.125 15.78C3.125 16.8175 3.9625 17.655 5 17.655C6.0375 17.655 6.875 16.8175 6.875 15.78C6.875 14.7425 6.0375 13.905 5 13.905ZM5 6.40497C3.9625 6.40497 3.125 7.24247 3.125 8.27997C3.125 9.31747 3.9625 10.155 5 10.155C6.0375 10.155 6.875 9.31747 6.875 8.27997C6.875 7.24247 6.0375 6.40497 5 6.40497ZM5 21.405C3.9625 21.405 3.125 22.255 3.125 23.28C3.125 24.305 3.975 25.155 5 25.155C6.025 25.155 6.875 24.305 6.875 23.28C6.875 22.255 6.0375 21.405 5 21.405ZM8.75 24.53H26.25V22.03H8.75V24.53ZM8.75 17.03H26.25V14.53H8.75V17.03ZM8.75 7.02997V9.52997H26.25V7.02997H8.75Z" fill="white"/>
  </g>
  <defs>
    <clipPath id="clip0_126_532">
      <rect width="30" height="30" fill="white" transform="translate(0 0.779968)"/>
    </clipPath>
  </defs>
</svg>