<svg xmlns="http://www.w3.org/2000/svg" width="30" height="31" viewBox="0 0 30 31" fill="none">
  <g clip-path="url(#clip0_126_527)">
    <path d="M23.925 16.955C23.975 16.58 24 16.1925 24 15.78C24 15.38 23.975 14.98 23.9125 14.605L26.45 12.63C26.675 12.455 26.7375 12.1175 26.6 11.8675L24.2 7.71747C24.05 7.44247 23.7375 7.35497 23.4625 7.44247L20.475 8.64247C19.85 8.16747 19.1875 7.76747 18.45 7.46747L18 4.29247C17.95 3.99247 17.7 3.77997 17.4 3.77997H12.6C12.3 3.77997 12.0625 3.99247 12.0125 4.29247L11.5625 7.46747C10.825 7.76747 10.15 8.17997 9.53751 8.64247L6.55001 7.44247C6.27501 7.34247 5.96251 7.44247 5.81251 7.71747L3.42502 11.8675C3.27502 12.13 3.32501 12.455 3.57501 12.63L6.11251 14.605C6.05001 14.98 6.00002 15.3925 6.00002 15.78C6.00002 16.1675 6.02501 16.58 6.08751 16.955L3.55001 18.93C3.32501 19.105 3.26252 19.4425 3.40002 19.6925L5.80001 23.8425C5.95001 24.1175 6.26251 24.205 6.53751 24.1175L9.52501 22.9175C10.15 23.3925 10.8125 23.7925 11.55 24.0925L12 27.2675C12.0625 27.5675 12.3 27.78 12.6 27.78H17.4C17.7 27.78 17.95 27.5675 17.9875 27.2675L18.4375 24.0925C19.175 23.7925 19.85 23.3925 20.4625 22.9175L23.45 24.1175C23.725 24.2175 24.0375 24.1175 24.1875 23.8425L26.5875 19.6925C26.7375 19.4175 26.675 19.105 26.4375 18.93L23.925 16.955ZM15 20.28C12.525 20.28 10.5 18.255 10.5 15.78C10.5 13.305 12.525 11.28 15 11.28C17.475 11.28 19.5 13.305 19.5 15.78C19.5 18.255 17.475 20.28 15 20.28Z" fill="white"/>
  </g>
  <defs>
    <clipPath id="clip0_126_527">
      <rect width="30" height="30" fill="white" transform="translate(0 0.779968)"/>
    </clipPath>
  </defs>
</svg>